<?xml version="1.0" encoding="UTF-8" standalone="no"?>
<!DOCTYPE svg PUBLIC "-//W3C//DTD SVG 1.1//EN" "http://www.w3.org/Graphics/SVG/1.1/DTD/svg11.dtd">
<svg width="100%" height="100%" viewBox="0 0 774 790" version="1.1" xmlns="http://www.w3.org/2000/svg" xmlns:xlink="http://www.w3.org/1999/xlink" xml:space="preserve" xmlns:serif="http://www.serif.com/" style="fill-rule:evenodd;clip-rule:evenodd;stroke-linejoin:round;stroke-miterlimit:2;">
    <g transform="matrix(1,0,0,1,-128.86,-129.298)">
        <g>
            <g>
                <g transform="matrix(1,0,0,1,-1.37411,-1.38384)">
                    <circle cx="828.452" cy="646.925" r="8.691" style="fill:rgb(75,63,88);"/>
                </g>
                <g transform="matrix(1,0,0,1,8.64594,-37.1447)">
                    <circle cx="828.452" cy="646.925" r="8.691" style="fill:rgb(75,63,88);"/>
                </g>
                <g transform="matrix(1,0,0,1,-18.1553,35.0507)">
                    <circle cx="828.452" cy="646.925" r="8.691" style="fill:rgb(75,63,88);"/>
                </g>
                <g transform="matrix(0.730656,0,0,0.730656,184.295,245.143)">
                    <circle cx="828.452" cy="646.925" r="8.691" style="fill:rgb(75,63,88);"/>
                </g>
                <g transform="matrix(0.730656,0,0,0.730656,241.864,103.179)">
                    <circle cx="828.452" cy="646.925" r="8.691" style="fill:rgb(75,63,88);"/>
                </g>
            </g>
            <g transform="matrix(-0.998868,0.0475577,-0.0475577,-0.998868,1044.23,1012.93)">
                <g transform="matrix(1,0,0,1,-1.37411,-1.38384)">
                    <circle cx="828.452" cy="646.925" r="8.691" style="fill:rgb(75,63,88);"/>
                </g>
                <g transform="matrix(1,0,0,1,8.64594,-37.1447)">
                    <circle cx="828.452" cy="646.925" r="8.691" style="fill:rgb(75,63,88);"/>
                </g>
                <g transform="matrix(1,0,0,1,-18.1553,35.0507)">
                    <circle cx="828.452" cy="646.925" r="8.691" style="fill:rgb(75,63,88);"/>
                </g>
                <g transform="matrix(0.730656,0,0,0.730656,184.295,245.143)">
                    <circle cx="828.452" cy="646.925" r="8.691" style="fill:rgb(75,63,88);"/>
                </g>
                <g transform="matrix(0.730656,0,0,0.730656,241.864,103.179)">
                    <circle cx="828.452" cy="646.925" r="8.691" style="fill:rgb(75,63,88);"/>
                </g>
            </g>
            <g transform="matrix(-0.735773,0.677228,-0.677228,-0.735773,1241.89,579.901)">
                <g transform="matrix(1,0,0,1,-1.37411,-1.38384)">
                    <circle cx="828.452" cy="646.925" r="8.691" style="fill:rgb(75,63,88);"/>
                </g>
                <g transform="matrix(1,0,0,1,8.64594,-37.1447)">
                    <circle cx="828.452" cy="646.925" r="8.691" style="fill:rgb(75,63,88);"/>
                </g>
                <g transform="matrix(1,0,0,1,-18.1553,35.0507)">
                    <circle cx="828.452" cy="646.925" r="8.691" style="fill:rgb(75,63,88);"/>
                </g>
                <g transform="matrix(0.730656,0,0,0.730656,184.295,245.143)">
                    <circle cx="828.452" cy="646.925" r="8.691" style="fill:rgb(75,63,88);"/>
                </g>
                <g transform="matrix(0.730656,0,0,0.730656,241.864,103.179)">
                    <circle cx="828.452" cy="646.925" r="8.691" style="fill:rgb(75,63,88);"/>
                </g>
            </g>
            <g transform="matrix(0.739869,-0.672751,0.672751,0.739869,-222.964,464.334)">
                <g transform="matrix(1,0,0,1,-1.37411,-1.38384)">
                    <circle cx="828.452" cy="646.925" r="8.691" style="fill:rgb(75,63,88);"/>
                </g>
                <g transform="matrix(1,0,0,1,8.64594,-37.1447)">
                    <circle cx="828.452" cy="646.925" r="8.691" style="fill:rgb(75,63,88);"/>
                </g>
                <g transform="matrix(1,0,0,1,-18.1553,35.0507)">
                    <circle cx="828.452" cy="646.925" r="8.691" style="fill:rgb(75,63,88);"/>
                </g>
                <g transform="matrix(0.730656,0,0,0.730656,184.295,245.143)">
                    <circle cx="828.452" cy="646.925" r="8.691" style="fill:rgb(75,63,88);"/>
                </g>
                <g transform="matrix(0.730656,0,0,0.730656,241.864,103.179)">
                    <circle cx="828.452" cy="646.925" r="8.691" style="fill:rgb(75,63,88);"/>
                </g>
            </g>
            <g transform="matrix(0.0206278,-0.999787,0.999787,0.0206278,-36.339,1017.41)">
                <g transform="matrix(1,0,0,1,-1.37411,-1.38384)">
                    <circle cx="828.452" cy="646.925" r="8.691" style="fill:rgb(75,63,88);"/>
                </g>
                <g transform="matrix(1,0,0,1,8.64594,-37.1447)">
                    <circle cx="828.452" cy="646.925" r="8.691" style="fill:rgb(75,63,88);"/>
                </g>
                <g transform="matrix(1,0,0,1,-18.1553,35.0507)">
                    <circle cx="828.452" cy="646.925" r="8.691" style="fill:rgb(75,63,88);"/>
                </g>
                <g transform="matrix(0.730656,0,0,0.730656,184.295,245.143)">
                    <circle cx="828.452" cy="646.925" r="8.691" style="fill:rgb(75,63,88);"/>
                </g>
                <g transform="matrix(0.730656,0,0,0.730656,241.864,103.179)">
                    <circle cx="828.452" cy="646.925" r="8.691" style="fill:rgb(75,63,88);"/>
                </g>
            </g>
            <g transform="matrix(-0.702835,-0.711353,0.711353,-0.702835,509.906,1251.07)">
                <g transform="matrix(1,0,0,1,-1.37411,-1.38384)">
                    <circle cx="828.452" cy="646.925" r="8.691" style="fill:rgb(75,63,88);"/>
                </g>
                <g transform="matrix(1,0,0,1,8.64594,-37.1447)">
                    <circle cx="828.452" cy="646.925" r="8.691" style="fill:rgb(75,63,88);"/>
                </g>
                <g transform="matrix(1,0,0,1,-18.1553,35.0507)">
                    <circle cx="828.452" cy="646.925" r="8.691" style="fill:rgb(75,63,88);"/>
                </g>
                <g transform="matrix(0.730656,0,0,0.730656,184.295,245.143)">
                    <circle cx="828.452" cy="646.925" r="8.691" style="fill:rgb(75,63,88);"/>
                </g>
                <g transform="matrix(0.730656,0,0,0.730656,241.864,103.179)">
                    <circle cx="828.452" cy="646.925" r="8.691" style="fill:rgb(75,63,88);"/>
                </g>
            </g>
            <g transform="matrix(-0.0522204,0.998636,-0.998636,-0.0522204,1093.67,54.6874)">
                <g transform="matrix(1,0,0,1,-1.37411,-1.38384)">
                    <circle cx="828.452" cy="646.925" r="8.691" style="fill:rgb(75,63,88);"/>
                </g>
                <g transform="matrix(1,0,0,1,8.64594,-37.1447)">
                    <circle cx="828.452" cy="646.925" r="8.691" style="fill:rgb(75,63,88);"/>
                </g>
                <g transform="matrix(1,0,0,1,-18.1553,35.0507)">
                    <circle cx="828.452" cy="646.925" r="8.691" style="fill:rgb(75,63,88);"/>
                </g>
                <g transform="matrix(0.730656,0,0,0.730656,184.295,245.143)">
                    <circle cx="828.452" cy="646.925" r="8.691" style="fill:rgb(75,63,88);"/>
                </g>
                <g transform="matrix(0.730656,0,0,0.730656,241.864,103.179)">
                    <circle cx="828.452" cy="646.925" r="8.691" style="fill:rgb(75,63,88);"/>
                </g>
            </g>
            <g transform="matrix(0.666356,0.745634,-0.745634,0.666356,568.871,-201.261)">
                <g transform="matrix(1,0,0,1,-1.37411,-1.38384)">
                    <circle cx="828.452" cy="646.925" r="8.691" style="fill:rgb(75,63,88);"/>
                </g>
                <g transform="matrix(1,0,0,1,8.64594,-37.1447)">
                    <circle cx="828.452" cy="646.925" r="8.691" style="fill:rgb(75,63,88);"/>
                </g>
                <g transform="matrix(1,0,0,1,-18.1553,35.0507)">
                    <circle cx="828.452" cy="646.925" r="8.691" style="fill:rgb(75,63,88);"/>
                </g>
                <g transform="matrix(0.730656,0,0,0.730656,184.295,245.143)">
                    <circle cx="828.452" cy="646.925" r="8.691" style="fill:rgb(75,63,88);"/>
                </g>
                <g transform="matrix(0.730656,0,0,0.730656,241.864,103.179)">
                    <circle cx="828.452" cy="646.925" r="8.691" style="fill:rgb(75,63,88);"/>
                </g>
            </g>
        </g>
        <g transform="matrix(6.86507,0,0,6.86507,-3094.67,-3165.02)">
            <circle cx="526.061" cy="537.888" r="43.836" style="fill:rgb(75,63,88);"/>
        </g>
        <g transform="matrix(6.26947,0,0,6.26947,-2782.71,-2845.42)">
            <circle cx="526.061" cy="537.888" r="43.836" style="fill:rgb(249,240,236);"/>
        </g>
        <g>
            <g>
                <circle cx="284.175" cy="586.301" r="7.903" style="fill:rgb(75,63,88);"/>
                <g transform="matrix(1,0,0,1,9.79131,27.1818)">
                    <circle cx="284.175" cy="586.301" r="7.903" style="fill:rgb(75,63,88);"/>
                </g>
                <g transform="matrix(1,0,0,1,25.1199,55.0208)">
                    <circle cx="284.175" cy="586.301" r="7.903" style="fill:rgb(75,63,88);"/>
                </g>
            </g>
            <g transform="matrix(0.772414,-0.635119,0.635119,0.772414,-199.951,459.093)">
                <circle cx="284.175" cy="586.301" r="7.903" style="fill:rgb(75,63,88);"/>
                <g transform="matrix(1,0,0,1,9.79131,27.1818)">
                    <circle cx="284.175" cy="586.301" r="7.903" style="fill:rgb(75,63,88);"/>
                </g>
                <g transform="matrix(1,0,0,1,25.1199,55.0208)">
                    <circle cx="284.175" cy="586.301" r="7.903" style="fill:rgb(75,63,88);"/>
                </g>
            </g>
            <g transform="matrix(-0.0620148,-0.998075,0.998075,-0.0620148,13.5101,1079.47)">
                <circle cx="284.175" cy="586.301" r="7.903" style="fill:rgb(75,63,88);"/>
                <g transform="matrix(1,0,0,1,9.79131,27.1818)">
                    <circle cx="284.175" cy="586.301" r="7.903" style="fill:rgb(75,63,88);"/>
                </g>
                <g transform="matrix(1,0,0,1,25.1199,55.0208)">
                    <circle cx="284.175" cy="586.301" r="7.903" style="fill:rgb(75,63,88);"/>
                </g>
            </g>
            <g transform="matrix(-0.661268,-0.750149,0.750149,-0.661268,468.189,1241.31)">
                <circle cx="284.175" cy="586.301" r="7.903" style="fill:rgb(75,63,88);"/>
                <g transform="matrix(1,0,0,1,9.79131,27.1818)">
                    <circle cx="284.175" cy="586.301" r="7.903" style="fill:rgb(75,63,88);"/>
                </g>
                <g transform="matrix(1,0,0,1,25.1199,55.0208)">
                    <circle cx="284.175" cy="586.301" r="7.903" style="fill:rgb(75,63,88);"/>
                </g>
            </g>
            <g transform="matrix(-0.999721,0.0236138,-0.0236138,-0.999721,1041.4,1033.46)">
                <circle cx="284.175" cy="586.301" r="7.903" style="fill:rgb(75,63,88);"/>
                <g transform="matrix(1,0,0,1,9.79131,27.1818)">
                    <circle cx="284.175" cy="586.301" r="7.903" style="fill:rgb(75,63,88);"/>
                </g>
                <g transform="matrix(1,0,0,1,25.1199,55.0208)">
                    <circle cx="284.175" cy="586.301" r="7.903" style="fill:rgb(75,63,88);"/>
                </g>
            </g>
            <g transform="matrix(-0.787238,0.616649,-0.616649,-0.787238,1219.13,606.532)">
                <circle cx="284.175" cy="586.301" r="7.903" style="fill:rgb(75,63,88);"/>
                <g transform="matrix(1,0,0,1,9.79131,27.1818)">
                    <circle cx="284.175" cy="586.301" r="7.903" style="fill:rgb(75,63,88);"/>
                </g>
                <g transform="matrix(1,0,0,1,25.1199,55.0208)">
                    <circle cx="284.175" cy="586.301" r="7.903" style="fill:rgb(75,63,88);"/>
                </g>
            </g>
            <g transform="matrix(0.0403867,0.999184,-0.999184,0.0403867,1021.29,-14.96)">
                <circle cx="284.175" cy="586.301" r="7.903" style="fill:rgb(75,63,88);"/>
                <g transform="matrix(1,0,0,1,9.79131,27.1818)">
                    <circle cx="284.175" cy="586.301" r="7.903" style="fill:rgb(75,63,88);"/>
                </g>
                <g transform="matrix(1,0,0,1,25.1199,55.0208)">
                    <circle cx="284.175" cy="586.301" r="7.903" style="fill:rgb(75,63,88);"/>
                </g>
            </g>
            <g transform="matrix(0.638683,0.76947,-0.76947,0.638683,582.071,-192.342)">
                <circle cx="284.175" cy="586.301" r="7.903" style="fill:rgb(75,63,88);"/>
                <g transform="matrix(1,0,0,1,9.79131,27.1818)">
                    <circle cx="284.175" cy="586.301" r="7.903" style="fill:rgb(75,63,88);"/>
                </g>
                <g transform="matrix(1,0,0,1,25.1199,55.0208)">
                    <circle cx="284.175" cy="586.301" r="7.903" style="fill:rgb(75,63,88);"/>
                </g>
            </g>
        </g>
        <g transform="matrix(4.62549,0,0,4.62549,-1919.84,-1961.48)">
            <circle cx="526.061" cy="537.888" r="43.836" style="fill:rgb(75,63,88);"/>
        </g>
        <g transform="matrix(4.21149,0,0,4.21149,-1701.58,-1742.46)">
            <circle cx="526.061" cy="537.888" r="43.836" style="fill:rgb(249,240,236);"/>
        </g>
        <g>
            <path d="M733.066,308.783L626.411,483.534L552.096,409.331L725.644,303.054C720.925,298.038 717.929,291.36 717.654,283.944C717.049,267.669 729.771,253.965 746.046,253.36C762.321,252.755 776.025,265.477 776.63,281.752C777.235,298.027 764.513,311.731 748.238,312.336C742.754,312.54 737.563,311.231 733.066,308.783Z" style="fill:rgb(75,63,88);"/>
            <clipPath id="_clip1">
                <path d="M733.066,308.783L626.411,483.534L552.096,409.331L725.644,303.054C720.925,298.038 717.929,291.36 717.654,283.944C717.049,267.669 729.771,253.965 746.046,253.36C762.321,252.755 776.025,265.477 776.63,281.752C777.235,298.027 764.513,311.731 748.238,312.336C742.754,312.54 737.563,311.231 733.066,308.783Z"/>
            </clipPath>
            <g clip-path="url(#_clip1)">
                <g transform="matrix(-0.993781,-0.111354,0.111354,-0.993781,959.947,1081.59)">
                    <path d="M414.567,586.406L332.594,714.031L434.323,606.676L425.481,599.455L414.567,586.406Z" style="fill:rgb(183,93,105);"/>
                </g>
            </g>
            <g transform="matrix(-0.999384,-0.0351026,0.0351026,-0.999384,1019.94,1072.83)">
                <path d="M733.066,308.783L626.411,483.534L552.096,409.331L725.644,303.054C720.925,298.038 717.929,291.36 717.654,283.944C717.049,267.669 729.771,253.965 746.046,253.36C762.321,252.755 776.025,265.477 776.63,281.752C777.235,298.027 764.513,311.731 748.238,312.336C742.754,312.54 737.563,311.231 733.066,308.783Z" style="fill:rgb(75,63,88);"/>
                <clipPath id="_clip2">
                    <path d="M733.066,308.783L626.411,483.534L552.096,409.331L725.644,303.054C720.925,298.038 717.929,291.36 717.654,283.944C717.049,267.669 729.771,253.965 746.046,253.36C762.321,252.755 776.025,265.477 776.63,281.752C777.235,298.027 764.513,311.731 748.238,312.336C742.754,312.54 737.563,311.231 733.066,308.783Z"/>
                </clipPath>
                <g clip-path="url(#_clip2)">
                    <g transform="matrix(-0.993781,-0.111354,0.111354,-0.993781,959.947,1081.59)">
                        <path d="M414.567,586.406L332.594,714.031L434.323,606.676L425.481,599.455L414.567,586.406Z" style="fill:rgb(183,93,105);"/>
                    </g>
                </g>
            </g>
            <g transform="matrix(0.00734992,-0.999973,0.999973,0.00734992,-10.0832,1031.67)">
                <path d="M733.066,308.783L626.411,483.534L552.096,409.331L725.644,303.054C720.925,298.038 717.929,291.36 717.654,283.944C717.049,267.669 729.771,253.965 746.046,253.36C762.321,252.755 776.025,265.477 776.63,281.752C777.235,298.027 764.513,311.731 748.238,312.336C742.754,312.54 737.563,311.231 733.066,308.783Z" style="fill:rgb(75,63,88);"/>
                <clipPath id="_clip3">
                    <path d="M733.066,308.783L626.411,483.534L552.096,409.331L725.644,303.054C720.925,298.038 717.929,291.36 717.654,283.944C717.049,267.669 729.771,253.965 746.046,253.36C762.321,252.755 776.025,265.477 776.63,281.752C777.235,298.027 764.513,311.731 748.238,312.336C742.754,312.54 737.563,311.231 733.066,308.783Z"/>
                </clipPath>
                <g clip-path="url(#_clip3)">
                    <g transform="matrix(-0.993781,-0.111354,0.111354,-0.993781,959.947,1081.59)">
                        <path d="M414.567,586.406L332.594,714.031L434.323,606.676L425.481,599.455L414.567,586.406Z" style="fill:rgb(110,193,222);"/>
                    </g>
                </g>
            </g>
            <g transform="matrix(-0.0383615,0.999264,-0.999264,-0.0383615,1059.44,26.2229)">
                <path d="M733.066,308.783L626.411,483.534L552.096,409.331L725.644,303.054C720.925,298.038 717.929,291.36 717.654,283.944C717.049,267.669 729.771,253.965 746.046,253.36C762.321,252.755 776.025,265.477 776.63,281.752C777.235,298.027 764.513,311.731 748.238,312.336C742.754,312.54 737.563,311.231 733.066,308.783Z" style="fill:rgb(75,63,88);"/>
                <clipPath id="_clip4">
                    <path d="M733.066,308.783L626.411,483.534L552.096,409.331L725.644,303.054C720.925,298.038 717.929,291.36 717.654,283.944C717.049,267.669 729.771,253.965 746.046,253.36C762.321,252.755 776.025,265.477 776.63,281.752C777.235,298.027 764.513,311.731 748.238,312.336C742.754,312.54 737.563,311.231 733.066,308.783Z"/>
                </clipPath>
                <g clip-path="url(#_clip4)">
                    <g transform="matrix(-0.993781,-0.111354,0.111354,-0.993781,959.947,1081.59)">
                        <path d="M414.567,586.406L332.594,714.031L434.323,606.676L425.481,599.455L414.567,586.406Z" style="fill:rgb(110,193,222);"/>
                    </g>
                </g>
            </g>
        </g>
        <g transform="matrix(1.0595,0,0,1,-53.7138,0)">
            <path d="M625.964,484.876L625.964,483.937L839.9,525.98L634.309,525.98L631.253,512.741L627.406,494.941L625.964,484.876Z" style="fill:rgb(249,240,236);"/>
            <path d="M625.964,483.937L625.964,464.294L902.776,526.388L625.964,588.482L625.964,484.876L627.406,494.941L631.253,512.741L634.309,525.98L839.9,525.98L625.964,483.937Z" style="fill:rgb(75,63,88);"/>
        </g>
        <g transform="matrix(-1.0595,0,0,-1,1085.35,1053.57)">
            <path d="M625.964,484.876L625.964,483.937L839.9,525.98L634.309,525.98L631.253,512.741L627.406,494.941L625.964,484.876Z" style="fill:rgb(249,240,236);"/>
            <path d="M625.964,483.937L625.964,464.294L902.776,526.388L625.964,588.482L625.964,484.876L627.406,494.941L631.253,512.741L634.309,525.98L839.9,525.98L625.964,483.937Z" style="fill:rgb(75,63,88);"/>
        </g>
        <g transform="matrix(1.05337,0,0,1.08764,-28.4119,-68.3743)">
            <path d="M508.68,641.313L492.279,687.645L477.559,636.538L488.032,636.01L496.324,638.768L508.68,641.313Z" style="fill:rgb(110,193,222);"/>
            <path d="M515.544,907.732L452.028,630.024L578.729,629.949L515.544,907.732ZM514.149,844.24L551.152,635.818L541.197,638.566L529.601,639.669L514.029,642.581L514.149,844.24ZM508.68,641.313L496.324,638.768L488.032,636.01L477.559,636.538L492.279,687.645L508.68,641.313Z" style="fill:rgb(75,63,88);"/>
            <path d="M514.149,844.24L514.029,642.581L529.601,639.669L541.197,638.566L551.152,635.818L514.149,844.24Z" style="fill:white;"/>
        </g>
        <g transform="matrix(-1.05337,0,0,-1.08764,1056.83,1116.59)">
            <path d="M508.68,641.313L492.279,687.645L477.559,636.538L488.032,636.01L496.324,638.768L508.68,641.313Z" style="fill:rgb(110,193,222);"/>
            <path d="M515.544,907.732L452.028,630.024L578.729,629.949L515.544,907.732ZM514.149,844.24L551.152,635.818L541.197,638.566L529.601,639.669L514.029,642.581L514.149,844.24ZM508.68,641.313L496.324,638.768L488.032,636.01L477.559,636.538L492.279,687.645L508.68,641.313Z" style="fill:rgb(75,63,88);"/>
            <path d="M514.149,844.24L514.029,642.581L529.601,639.669L541.197,638.566L551.152,635.818L514.149,844.24Z" style="fill:white;"/>
        </g>
        <g transform="matrix(2.64187,0,0,2.64187,-874.082,-896.109)">
            <circle cx="526.061" cy="537.888" r="43.836" style="fill:rgb(75,63,88);"/>
        </g>
        <g transform="matrix(2.27604,0,0,2.27604,-681.447,-699.719)">
            <circle cx="526.061" cy="537.888" r="43.836" style="fill:rgb(249,240,236);"/>
        </g>
        <g transform="matrix(1.70883,0,0,1.70883,-384.274,-395.228)">
            <circle cx="526.061" cy="537.888" r="43.836" style="fill:rgb(110,193,222);"/>
        </g>
        <g>
            <g transform="matrix(1.36199,0,0,0.610143,-296.126,150.008)">
                <path d="M595.653,448.017L602.603,506.67L588.702,506.67L595.653,448.017Z" style="fill:rgb(75,63,88);"/>
            </g>
            <g transform="matrix(1.03585,0.893602,-0.413623,0.479466,153.293,-296.611)">
                <path d="M595.653,448.017L602.603,506.67L588.702,506.67L595.653,448.017Z" style="fill:rgb(75,63,88);"/>
            </g>
            <g transform="matrix(-0.00487774,1.36199,-0.61014,-0.00218512,891.669,-284.888)">
                <path d="M595.653,448.017L602.603,506.67L588.702,506.67L595.653,448.017Z" style="fill:rgb(75,63,88);"/>
            </g>
            <g transform="matrix(-0.955652,0.970442,-0.434737,-0.428111,1349.25,209.869)">
                <path d="M595.653,448.017L602.603,506.67L588.702,506.67L595.653,448.017Z" style="fill:rgb(75,63,88);"/>
            </g>
            <g transform="matrix(-1.36193,0.0128228,-0.00574433,-0.610116,1328.7,891.408)">
                <path d="M595.653,448.017L602.603,506.67L588.702,506.67L595.653,448.017Z" style="fill:rgb(75,63,88);"/>
            </g>
            <g transform="matrix(-0.964326,-0.961823,0.430875,-0.431997,825.919,1363.09)">
                <path d="M595.653,448.017L602.603,506.67L588.702,506.67L595.653,448.017Z" style="fill:rgb(75,63,88);"/>
            </g>
            <g transform="matrix(0.000420413,-1.36199,0.610143,0.000188336,139.591,1336.51)">
                <path d="M595.653,448.017L602.603,506.67L588.702,506.67L595.653,448.017Z" style="fill:rgb(75,63,88);"/>
            </g>
            <g transform="matrix(0.971627,-0.954448,0.427572,0.435267,-326.553,824.949)">
                <path d="M595.653,448.017L602.603,506.67L588.702,506.67L595.653,448.017Z" style="fill:rgb(75,63,88);"/>
            </g>
        </g>
        <g transform="matrix(1.52377,0,0,1.52377,-287.161,-295.295)">
            <circle cx="526.061" cy="537.888" r="43.836" style="fill:rgb(75,63,88);"/>
        </g>
        <g transform="matrix(1.2668,0,0,1.2668,-151.474,-157.985)">
            <circle cx="526.061" cy="537.888" r="43.836" style="fill:rgb(110,193,222);"/>
        </g>
        <g transform="matrix(0.945666,0,0,0.945666,17.557,14.5604)">
            <circle cx="526.061" cy="537.888" r="43.836" style="fill:rgb(75,63,88);"/>
        </g>
        <g transform="matrix(0.655586,0,0,0.655586,170.148,170.583)">
            <circle cx="526.061" cy="537.888" r="43.836" style="fill:rgb(249,240,236);"/>
        </g>
        <g transform="matrix(1.11456,0,0,1.11456,-61.3632,-62.4699)">
            <circle cx="516.896" cy="526.223" r="16.148" style="fill:rgb(75,63,88);"/>
        </g>
    </g>
</svg>
