<?xml version="1.0" encoding="UTF-8" standalone="no"?>
<!DOCTYPE svg PUBLIC "-//W3C//DTD SVG 1.1//EN" "http://www.w3.org/Graphics/SVG/1.1/DTD/svg11.dtd">
<svg width="100%" height="100%" viewBox="0 0 774 790" version="1.1" xmlns="http://www.w3.org/2000/svg" xmlns:xlink="http://www.w3.org/1999/xlink" xml:space="preserve" xmlns:serif="http://www.serif.com/" style="fill-rule:evenodd;clip-rule:evenodd;stroke-linejoin:round;stroke-miterlimit:2;">
    <g transform="matrix(1,0,0,1,-128.86,-129.298)">
        <g transform="matrix(4.62549,0,0,4.62549,-1919.84,-1961.48)">
            <circle cx="526.061" cy="537.888" r="43.836" style="fill:rgb(191,41,164);"/>
        </g>
        <g transform="matrix(4.21149,0,0,4.21149,-1701.58,-1742.46)">
            <circle cx="526.061" cy="537.888" r="43.836" style="fill:rgb(249,240,236);"/>
        </g>
        <path d="M399.725,584.529L128.86,527.181L396.071,470.606L298.296,308.275C293.246,312.957 286.546,315.903 279.128,316.125C262.849,316.61 249.239,303.787 248.753,287.508C248.268,271.229 261.091,257.619 277.37,257.134C293.649,256.649 307.259,269.471 307.744,285.75C307.908,291.235 306.56,296.417 304.079,300.896L455.298,394.72L513.769,129.298L572.968,396.55L725.644,303.054C720.925,298.038 717.929,291.36 717.654,283.944C717.049,267.669 729.771,253.965 746.046,253.36C762.321,252.755 776.025,265.477 776.63,281.752C777.235,298.027 764.513,311.731 748.238,312.336C742.754,312.54 737.563,311.231 733.066,308.783L634.874,469.667L902.776,526.388L640.304,581.959L728.77,739.707C733.963,735.184 740.752,732.447 748.173,732.456C764.459,732.476 777.665,745.714 777.645,762C777.625,778.286 764.386,791.493 748.1,791.473C731.814,791.453 718.608,778.214 718.628,761.928C718.635,756.441 720.142,751.303 722.761,746.904L574.27,648.265L514.647,918.915L457.029,658.796L305.38,744.493C309.92,749.671 312.679,756.45 312.694,763.871C312.727,780.158 299.532,793.407 283.246,793.44C266.96,793.473 253.71,780.278 253.677,763.992C253.644,747.705 266.839,734.456 283.126,734.423C288.613,734.412 293.755,735.902 298.164,738.507L399.725,584.529Z" style="fill:rgb(191,41,164);"/>
        <g transform="matrix(2.27604,0,0,2.27604,-681.447,-699.719)">
            <circle cx="526.061" cy="537.888" r="43.836" style="fill:rgb(249,240,236);"/>
        </g>
        <g transform="matrix(1.70883,0,0,1.70883,-384.274,-395.228)">
            <path d="M482.508,542.895L466.675,538.701L482.349,534.56C483.062,525.073 486.801,516.425 492.602,509.578L484.56,495.463L498.55,503.768C505.165,498.426 513.362,494.967 522.324,494.209L526.338,479.034L530.366,494.261C539.294,495.133 547.44,498.688 553.988,504.108L567.208,494.901L559.768,509.874C565.447,516.698 569.095,525.271 569.779,534.661L585.01,538.748L569.629,542.758C568.631,551.769 564.897,559.961 559.277,566.482L567.355,580.129L553.393,572.151C546.918,577.325 538.946,580.703 530.236,581.527L526.186,597.444L521.813,581.52C513.225,580.693 505.358,577.383 498.939,572.318L485.026,580.434L493.007,566.67C487.325,560.152 483.538,551.939 482.508,542.895Z" style="fill:rgb(191,41,164);"/>
        </g>
        <g transform="matrix(0.655586,0,0,0.655586,170.148,170.583)">
            <circle cx="526.061" cy="537.888" r="43.836" style="fill:rgb(249,240,236);"/>
        </g>
        <g transform="matrix(1.11456,0,0,1.11456,-61.3632,-62.4699)">
            <circle cx="516.896" cy="526.223" r="16.148" style="fill:rgb(191,41,164);"/>
        </g>
    </g>
</svg>
